<?xml version="1.0" standalone="no"?>
<!DOCTYPE svg PUBLIC "-//W3C//DTD SVG 20010904//EN"
 "http://www.w3.org/TR/2001/REC-SVG-20010904/DTD/svg10.dtd">
<svg version="1.0" xmlns="http://www.w3.org/2000/svg"
 width="256.000000pt" height="256.000000pt" viewBox="0 0 256.000000 256.000000"
 preserveAspectRatio="xMidYMid meet">
<metadata>
Created by potrace 1.14, written by Peter Selinger 2001-2017
</metadata>
<g transform="translate(0.000000,256.000000) scale(0.100000,-0.100000)"
fill="#000000" stroke="none">
<path d="M14 2337 c-12 -7 -14 -156 -14 -1057 0 -989 1 -1050 17 -1058 23 -11
2514 -10 2531 1 18 12 18 2102 0 2114 -17 10 -2515 10 -2534 0z m2464 -66 c9
-1 12 -206 12 -990 0 -933 -1 -989 -17 -993 -10 -2 -553 -3 -1208 -3 l-1190 1
-3 807 -2 807 1071 2 c988 3 1073 4 1082 20 8 12 7 21 -2 32 -12 14 -119 16
-1082 16 l-1069 0 0 149 c0 91 4 151 10 153 9 3 2364 2 2398 -1z"/>
<path d="M221 2147 c-15 -15 -14 -44 1 -53 14 -9 223 -8 238 1 14 9 13 40 -2
53 -18 14 -223 13 -237 -1z"/>
<path d="M615 2144 c-16 -17 -10 -41 14 -53 27 -13 213 -3 228 12 19 19 6 45
-25 51 -59 11 -202 4 -217 -10z"/>
<path d="M1010 2145 c-15 -18 -3 -55 18 -56 60 -4 202 -1 216 4 21 8 21 44 -2
56 -29 15 -219 12 -232 -4z"/>
<path d="M342 1794 c-12 -9 -15 -41 -15 -186 0 -96 3 -180 7 -186 10 -17 627
-17 644 0 8 8 12 64 12 184 0 146 -2 174 -16 185 -22 18 -608 21 -632 3z m574
-187 l1 -127 -258 0 -259 0 -1 38 c-1 54 -1 163 0 189 1 12 9 23 18 25 9 2
125 3 257 2 l241 0 1 -127z"/>
<path d="M1782 1378 c-6 -13 -34 -111 -63 -218 -28 -107 -60 -226 -70 -265
-23 -85 -22 -80 -3 -99 23 -24 49 -5 63 46 6 24 38 144 71 268 34 123 62 233
64 245 7 44 -42 62 -62 23z"/>
<path d="M1395 1236 c-69 -69 -125 -133 -125 -143 0 -14 244 -271 262 -277 11
-3 38 28 38 43 0 9 -49 65 -109 125 l-109 108 109 110 c111 111 114 114 103
142 -13 34 -47 12 -169 -108z"/>
<path d="M1917 1353 c-19 -18 -1 -51 61 -113 37 -37 85 -86 107 -109 l39 -41
-107 -108 c-59 -59 -107 -114 -107 -123 0 -17 19 -39 34 -39 17 0 266 253 266
271 0 22 -247 269 -269 269 -10 0 -21 -3 -24 -7z"/>
<path d="M333 1273 c-12 -31 -8 -350 5 -365 18 -22 629 -20 642 2 15 23 13
353 -2 368 -9 9 -95 12 -325 12 -286 0 -314 -2 -320 -17z m584 -178 c1 -69 -2
-126 -5 -126 -30 -6 -505 -2 -508 3 -5 7 -7 110 -5 206 l1 42 258 0 259 0 0
-125z"/>
<path d="M339 764 c-8 -9 -12 -73 -12 -190 -1 -143 2 -177 13 -184 23 -15 623
-13 638 2 15 15 17 345 2 368 -13 22 -623 25 -641 4z m577 -186 l1 -128 -258
0 -259 0 -1 35 c0 19 -1 49 -1 65 0 17 1 58 1 93 l1 62 258 0 257 0 1 -127z"/>
</g>
</svg>
